PathFileType	4	(X/Y/Z)	OpenSim_Sub02_EMGBaseline_Gyro.trc
DataRate	CameraRate	NumFrames	NumMarkers	Units	OrigDataRate	OrigDataStartFrame	OrigNumFrames
100	100	17	8	m	100	841	6727
Frame#	Time	torso_imu_offset_imu	pelvis_imu_offset_imu	tibia_r_imu_offset_imu	femur_r_imu_offset_imu	tibia_l_imu_offset_imu	femur_l_imu_offset_imu	toes_r_imu_offset_imu	toes_l_imu_offset_imu
				X1	Y1	Z1	X2	Y2	Z2	X3	Y3	Z3	X4	Y4	Z4	X5	Y5	Z5	X6	Y6	Z6	X7	Y7	Z7	X8		Y8	Z8	

841	8.40000000	-0.44283242	-0.15482189	-0.22245900	-0.01091318	0.21808031	-0.03702063	0.11205818	-0.68117341	4.55316124	-0.34162073	-0.33122339	-0.75482882	0.27842195	0.42444537	0.89602878	0.33801023	-0.09697712	0.69474494	-0.65618507	4.57410572	2.66828197	-0.01333095	-0.00780002	0.09360006
842	8.41000000	-0.39145214	-0.12908581	-0.19910798	-0.00368396	0.16233160	-0.04917228	1.00796959	-0.63666168	4.57071730	-0.50720339	-0.35740110	-0.96968317	0.20964618	0.46344322	0.91467865	0.33791712	-0.10112536	0.66520028	-0.54056567	4.44464162	2.74200993	-0.00740318	-0.02604856	0.10207302
843	8.42000000	-0.34250826	-0.10773414	-0.17403994	-0.01369011	0.09873218	-0.05990926	1.88840583	-0.46703162	4.73774793	-0.66993569	-0.34006021	-1.14620389	0.13779234	0.43595049	0.96396588	0.34393831	-0.09668655	0.63451554	-0.29013626	4.20126505	2.92632292	-0.00805669	-0.04679363	0.10780511
844	8.43000000	-0.31234593	-0.08019540	-0.14855102	-0.03014961	0.04245157	-0.05367979	2.70793046	-0.13793146	4.85943862	-0.78061097	-0.27805281	-1.27272601	0.06021020	0.44280119	0.99403883	0.36248701	-0.09943194	0.60339630	-0.31666203	3.80628294	3.16198290	-0.01338269	-0.07348767	0.11838416
845	8.44000000	-0.28408516	-0.06969513	-0.11444409	-0.06014785	0.00138428	-0.04245106	3.23237607	0.10814523	4.69919710	-0.72862368	-0.17566141	-1.32308608	-0.09621000	0.50115700	0.99879791	0.37525416	-0.09831069	0.58123052	-0.50953411	3.41100131	3.11076585	-0.02627119	-0.08333607	0.12737662
846	8.45000000	-0.26320306	-0.06555109	-0.07367022	-0.08953889	-0.03527809	-0.04321722	2.94032189	0.07230330	4.31707562	-0.49060355	-0.09768280	-1.32729941	-0.23146856	0.51752119	1.03409803	0.35598786	-0.09119929	0.55640050	0.44340609	3.15969793	2.82512044	-0.03404244	-0.09819242	0.13350399
847	8.46000000	-0.25321771	-0.04560365	-0.05695038	-0.09381060	-0.05936419	-0.02722345	2.51795351	0.15494830	3.86887867	-0.15049976	-0.10612050	-1.32210328	-0.28192500	0.54622462	1.10667196	0.29587879	-0.07760089	0.53667624	1.08776713	2.87480445	2.53975353	-0.02161166	-0.12180114	0.13056804
848	8.47000000	-0.24308372	-0.02550855	-0.04786425	-0.10556933	-0.06876052	-0.00225462	2.51792032	0.26877623	3.38101807	0.16134346	-0.15215731	-1.25154284	-0.25061480	0.58406982	1.17617525	0.19077759	-0.04410013	0.50291966	0.52536089	2.46881839	2.20917208	-0.02349502	-0.15630142	0.13654208
849	8.48000000	-0.22993843	-0.00072814	-0.03766163	-0.13096669	-0.07984124	0.03152543	2.18432059	0.09942690	2.83984291	0.30710179	-0.13076738	-1.02543186	-0.21616006	0.63041421	1.21534230	0.07031833	-0.01307758	0.46319223	0.35280857	2.07109000	1.90505814	-0.03412011	-0.19528907	0.15549012
850	8.49000000	-0.21740870	0.02522797	-0.04023700	-0.15927154	-0.07988652	0.08596314	1.54291370	-0.05809782	2.01614217	0.35446300	0.00514919	-0.58363796	-0.25453433	0.73394148	1.26261968	-0.01142143	0.01628032	0.43149628	0.26123147	1.61533037	1.68883861	-0.03565927	-0.24403155	0.16790345
851	8.50000000	-0.19962028	0.05383899	-0.03944039	-0.21716015	-0.07657217	0.13467699	0.95682999	-0.15424287	0.84267715	0.52479921	0.09814410	-0.05608366	-0.27629511	0.80583601	1.35129947	-0.05226962	0.04747740	0.36804127	-0.55016906	1.00231165	1.47232767	-0.04065968	-0.28246474	0.18490184
852	8.51000000	-0.17991354	0.08795733	-0.04006058	-0.25935611	-0.08392317	0.17339528	0.29956845	-0.28208907	-0.29596439	0.84328228	-0.02667248	0.37874859	-0.21429072	0.84322562	1.46275819	-0.04180810	0.08429881	0.30143501	-0.66457247	0.32914178	1.13138084	-0.02598427	-0.32929561	0.20800655
853	8.52000000	-0.16541917	0.11989971	-0.04629968	-0.23923579	-0.10114766	0.19804341	-0.39907405	-0.32250359	-1.08318972	1.10876203	-0.30234544	0.67773329	-0.06815865	0.89400553	1.56994991	-0.01056861	0.13124425	0.22322418	0.31392282	-0.38343353	0.66943234	-0.01947975	-0.41334132	0.24527770
854	8.53000000	-0.14106390	0.15569846	-0.04705194	-0.15891522	-0.13829944	0.20540746	-0.70362688	-0.25008668	-1.56871262	1.16734836	-0.54541574	0.86494213	0.00795482	0.91690914	1.63965854	0.02041627	0.16923009	0.12594539	0.77697643	-1.27775166	0.11572181	-0.02784024	-0.49037847	0.28625789
855	8.54000000	-0.10137937	0.19133282	-0.04537244	-0.00444632	-0.17196484	0.22138113	-0.55841719	-0.20281243	-1.90829095	1.03128942	-0.62502195	0.95424231	0.01205451	0.91820305	1.71347305	0.11048639	0.20460991	0.04110351	0.87931522	-2.05418994	-0.49790257	0.00623208	-0.61101418	0.33136148
856	8.55000000	-0.05179014	0.23998637	-0.04698117	0.16801224	-0.20898546	0.26460676	-0.18016312	-0.23990722	-2.20203872	0.79706135	-0.57813582	0.93866387	0.12746163	0.91111218	1.82061463	0.28053705	0.25602115	-0.04486180	-1.23580844	-2.60225332	-0.93092477	0.02937354	-0.74321358	0.35329895
857	8.56000000	0.01995518	0.29586083	-0.03854737	0.32393710	-0.24525743	0.32678421	0.40860303	-0.38199631	-2.42331428	0.57645319	-0.50088641	0.80663994	0.30091410	0.93779811	1.94510768	0.50560815	0.31873060	-0.11429642	-2.94756970	-1.92603526	-1.15943011	0.10465877	-0.91067752	0.34461035
